<svg width="600" height="520" viewBox="0 0 600 520" fill="none" xmlns="http://www.w3.org/2000/svg">
<rect width="259.358" height="259.358" rx="23.0555" transform="matrix(-0.512681 0.858579 0.858304 0.513141 364.969 155)" fill="#E5EEFF"/>
<rect width="241.978" height="240.878" rx="32.6061" transform="matrix(0.264922 -0.96427 -0.964098 -0.265546 240.23 314.295)" fill="#F2F6FF"/>
<path fill-rule="evenodd" clip-rule="evenodd" d="M433.181 407.177L433.195 421.282C433.196 423.21 431.635 424.774 429.707 424.776L412.66 424.792L412.679 444.365C412.681 446.293 411.12 447.857 409.192 447.859L153.183 448.103C151.256 448.105 149.692 446.544 149.69 444.616L149.39 129.822C149.388 127.894 150.949 126.33 152.877 126.328L169.924 126.312L169.905 106.738C169.903 104.811 171.465 103.247 173.392 103.245L196.87 103.222L196.857 89.117C196.855 87.1893 198.416 85.6251 200.344 85.6233L408.276 85.4251L458.869 135.921C459.524 136.575 459.893 137.463 459.893 138.388L460.146 403.661C460.148 405.588 458.587 407.152 456.659 407.154L433.181 407.177Z" fill="#CCDDFF"/>
<path d="M139.467 431.242L139.167 116.447C139.166 114.52 140.727 112.956 142.654 112.954L350.587 112.756L401.179 163.252C401.834 163.906 402.203 164.793 402.204 165.719L402.457 430.991C402.458 432.919 400.897 434.483 398.969 434.485L142.961 434.729C141.033 434.731 139.469 433.169 139.467 431.242Z" fill="white"/>
<path d="M351.618 112.755L350.587 112.756M350.587 112.756L142.654 112.954C140.727 112.956 139.166 114.52 139.167 116.447L139.467 431.242C139.469 433.169 141.033 434.731 142.961 434.729L398.97 434.485C400.897 434.483 402.458 432.919 402.457 430.991L402.204 165.719C402.203 164.793 401.834 163.906 401.179 163.252L350.587 112.756Z" stroke="#D1D1D1" stroke-width="2.37194"/>
<path d="M159.983 408.158L159.683 93.3635C159.681 91.4358 161.242 89.8716 163.17 89.8697L371.102 89.6715L421.695 140.168C422.35 140.822 422.719 141.709 422.719 142.635L422.972 407.907C422.974 409.835 421.413 411.399 419.485 411.401L163.477 411.645C161.549 411.647 159.985 410.085 159.983 408.158Z" fill="white"/>
<path d="M372.134 89.6706L371.102 89.6715M371.102 89.6715L163.17 89.8697C161.242 89.8716 159.681 91.4358 159.683 93.3635L159.983 408.158C159.985 410.085 161.549 411.647 163.477 411.645L419.485 411.401C421.413 411.399 422.974 409.835 422.972 407.907L422.719 142.635C422.719 141.709 422.35 140.822 421.695 140.168L371.102 89.6715Z" stroke="#D1D1D1" stroke-width="2.37194"/>
<path d="M186.936 390.537L186.636 75.7424C186.634 73.8147 188.196 72.2505 190.123 72.2486L398.055 72.0505L448.648 122.546C449.303 123.2 449.672 124.088 449.673 125.014L449.925 390.286C449.927 392.214 448.366 393.778 446.438 393.78L190.43 394.024C188.502 394.025 186.938 392.464 186.936 390.537Z" fill="white"/>
<path d="M399.087 72.0495L398.056 72.0505M398.056 72.0505L190.123 72.2486C188.196 72.2505 186.634 73.8147 186.636 75.7424L186.936 390.537C186.938 392.464 188.502 394.025 190.43 394.024L446.438 393.78C448.366 393.778 449.927 392.214 449.925 390.286L449.673 125.014C449.672 124.088 449.303 123.2 448.648 122.546L398.056 72.0505Z" stroke="#D1D1D1" stroke-width="2.37194"/>
<rect opacity="0.6" x="216.355" y="176.6" width="190.885" height="4.26558" rx="0.867921" fill="#D1D1D1"/>
<rect opacity="0.6" x="216.355" y="201.779" width="190.885" height="4.26558" rx="0.867921" fill="#D1D1D1"/>
<rect opacity="0.6" x="216.355" y="164.887" width="190.885" height="4.26558" rx="0.867921" fill="#D1D1D1"/>
<rect opacity="0.6" x="216.355" y="190.062" width="190.885" height="4.26558" rx="0.867921" fill="#D1D1D1"/>
<rect opacity="0.6" x="216.355" y="153.172" width="190.885" height="4.26558" rx="0.867921" fill="#D1D1D1"/>
<rect opacity="0.6" x="216.355" y="114.26" width="63.5028" height="4.53591" rx="0.867921" fill="#D1D1D1"/>
<rect opacity="0.6" x="216.355" y="234.084" width="83.1789" height="4.26558" rx="0.867921" fill="#D1D1D1"/>
<rect opacity="0.6" x="216.355" y="245.797" width="83.1789" height="4.26558" rx="0.867921" fill="#D1D1D1"/>
<rect opacity="0.6" x="216.355" y="257.344" width="49.895" height="4.53591" rx="0.867921" fill="#D1D1D1"/>
<path d="M398.116 123.619L398.066 72.0527L449.682 123.57L398.116 123.619Z" fill="#D1D1D1"/>
<rect width="121.584" height="71.7016" rx="7.46487" transform="matrix(1 0 0.000780735 1 119 143)" fill="#0048D9"/>
<path d="M170.709 179.588L170.053 182.052L175.76 182.05L175.143 179.587C174.759 178.246 174.389 176.822 174.033 175.317C173.676 173.812 173.32 172.361 172.964 170.966L172.799 170.966C172.471 172.389 172.13 173.853 171.775 175.359C171.447 176.837 171.091 178.247 170.709 179.588ZM161.025 193.141L169.39 166.369L176.657 166.366L185.043 193.131L178.638 193.134L176.993 186.771L168.823 186.774L167.183 193.138L161.025 193.141ZM187.968 193.13L187.957 166.361L193.993 166.359L194.003 193.128L187.968 193.13Z" fill="white"/>
<path d="M28 343C28 334.163 35.1634 327 44 327H254C262.837 327 270 334.163 270 343V403.368C270 412.205 262.837 419.368 254 419.368H110.124L74.1647 435V419.368H44C35.1634 419.368 28 412.205 28 403.368V343Z" fill="#CCDDFF"/>
<path d="M555 227C555 218.163 547.837 211 539 211H328C319.163 211 312 218.163 312 227V361.328C312 370.165 319.163 377.328 328 377.328H472.536L508.645 393V377.328H539C547.837 377.328 555 370.165 555 361.328V227Z" fill="#FFE299"/>
<path fill-rule="evenodd" clip-rule="evenodd" d="M48 351C48 348.791 49.7909 347 52 347H249C251.209 347 253 348.791 253 351V352C253 354.209 251.209 356 249 356H52C49.7909 356 48 354.209 48 352V351ZM48 371C48 368.791 49.7909 367 52 367H249C251.209 367 253 368.791 253 371V372C253 374.209 251.209 376 249 376H52C49.7909 376 48 374.209 48 372V371ZM52 388C49.7909 388 48 389.791 48 392V393C48 395.209 49.7909 397 52 397H179C181.209 397 183 395.209 183 393V392C183 389.791 181.209 388 179 388H52Z" fill="#002A80"/>
<path fill-rule="evenodd" clip-rule="evenodd" d="M337.374 243.297C341.196 243.297 344.295 240.198 344.295 236.376C344.295 232.554 341.196 229.455 337.374 229.455C333.552 229.455 330.453 232.554 330.453 236.376C330.453 240.198 333.552 243.297 337.374 243.297ZM337.374 266.367C341.196 266.367 344.295 263.268 344.295 259.446C344.295 255.624 341.196 252.525 337.374 252.525C333.552 252.525 330.453 255.624 330.453 259.446C330.453 263.268 333.552 266.367 337.374 266.367ZM344.295 282.515C344.295 286.337 341.196 289.436 337.374 289.436C333.552 289.436 330.453 286.337 330.453 282.515C330.453 278.693 333.552 275.594 337.374 275.594C341.196 275.594 344.295 278.693 344.295 282.515ZM337.374 312.506C341.196 312.506 344.295 309.407 344.295 305.585C344.295 301.763 341.196 298.664 337.374 298.664C333.552 298.664 330.453 301.763 330.453 305.585C330.453 309.407 333.552 312.506 337.374 312.506ZM344.295 328.655C344.295 332.477 341.196 335.576 337.374 335.576C333.552 335.576 330.453 332.477 330.453 328.655C330.453 324.832 333.552 321.734 337.374 321.734C341.196 321.734 344.295 324.832 344.295 328.655ZM337.374 358.645C341.196 358.645 344.295 355.546 344.295 351.724C344.295 347.901 341.196 344.803 337.374 344.803C333.552 344.803 330.453 347.901 330.453 351.724C330.453 355.546 333.552 358.645 337.374 358.645ZM353.523 235.762C353.523 233.553 355.314 231.762 357.523 231.762H499.476C501.685 231.762 503.476 233.553 503.476 235.762V236.99C503.476 239.199 501.685 240.99 499.476 240.99H357.523C355.314 240.99 353.523 239.199 353.523 236.99V235.762ZM357.523 254.832C355.314 254.832 353.523 256.622 353.523 258.832V260.059C353.523 262.269 355.314 264.059 357.523 264.059H474.099C476.308 264.059 478.099 262.269 478.099 260.059V258.832C478.099 256.622 476.308 254.832 474.099 254.832H357.523ZM353.523 281.902C353.523 279.692 355.314 277.902 357.523 277.902H520.238C522.447 277.902 524.238 279.692 524.238 281.902V283.129C524.238 285.339 522.447 287.129 520.238 287.129H357.523C355.314 287.129 353.523 285.339 353.523 283.129V281.902ZM357.523 300.971C355.314 300.971 353.523 302.761 353.523 304.971V306.198C353.523 308.408 355.314 310.198 357.523 310.198H485.634C487.843 310.198 489.634 308.408 489.634 306.198V304.971C489.634 302.761 487.843 300.971 485.634 300.971H357.523ZM353.523 328.04C353.523 325.831 355.314 324.04 357.523 324.04H449.876C452.085 324.04 453.876 325.831 453.876 328.04V329.268C453.876 331.477 452.085 333.268 449.876 333.268H357.523C355.314 333.268 353.523 331.477 353.523 329.268V328.04ZM357.523 347.11C355.314 347.11 353.523 348.901 353.523 351.11V352.338C353.523 354.547 355.314 356.338 357.523 356.338H499.476C501.685 356.338 503.476 354.547 503.476 352.338V351.11C503.476 348.901 501.685 347.11 499.476 347.11H357.523Z" fill="#1A1A1A"/>
<path fill-rule="evenodd" clip-rule="evenodd" d="M516.71 109.14C515.763 108.193 515.763 106.658 516.71 105.71C517.657 104.763 519.192 104.763 520.139 105.71L525.282 110.855C526.229 111.803 526.229 113.338 525.282 114.285C524.335 115.233 522.8 115.233 521.853 114.285L516.71 109.14ZM528.713 121.145C527.766 120.197 527.766 118.662 528.713 117.715C529.66 116.767 531.195 116.767 532.142 117.715L537.285 122.86C538.232 123.807 538.232 125.342 537.285 126.29C536.338 127.237 534.803 127.237 533.856 126.29L528.713 121.145ZM516.71 126.29C517.657 127.237 519.192 127.237 520.139 126.29L525.282 121.145C526.229 120.197 526.229 118.662 525.282 117.715C524.335 116.767 522.8 116.767 521.853 117.715L516.71 122.86C515.763 123.807 515.763 125.342 516.71 126.29ZM532.147 114.286C531.2 115.233 529.665 115.233 528.718 114.286C527.771 113.339 527.771 111.803 528.718 110.856L533.861 105.711C534.808 104.764 536.343 104.764 537.29 105.711C538.237 106.658 538.237 108.194 537.29 109.141L532.147 114.286Z" fill="#3D99F5"/>
<path fill-rule="evenodd" clip-rule="evenodd" d="M85.7101 482.14C84.7633 481.193 84.7633 479.658 85.7101 478.71C86.657 477.763 88.1921 477.763 89.139 478.71L94.2822 483.855C95.229 484.803 95.229 486.338 94.2822 487.285C93.3353 488.233 91.8002 488.233 90.8534 487.285L85.7101 482.14ZM97.7132 494.145C96.7664 493.197 96.7664 491.662 97.7132 490.715C98.66 489.767 100.195 489.767 101.142 490.715L106.285 495.86C107.232 496.807 107.232 498.342 106.285 499.29C105.338 500.237 103.803 500.237 102.856 499.29L97.7132 494.145ZM85.7101 499.29C86.657 500.237 88.1921 500.237 89.139 499.29L94.2822 494.145C95.229 493.197 95.229 491.662 94.2822 490.715C93.3353 489.767 91.8002 489.767 90.8534 490.715L85.7101 495.86C84.7633 496.807 84.7633 498.342 85.7101 499.29ZM101.147 487.286C100.2 488.233 98.6647 488.233 97.7179 487.286C96.7711 486.339 96.7711 484.803 97.7179 483.856L102.861 478.711C103.808 477.764 105.343 477.764 106.29 478.711C107.237 479.658 107.237 481.194 106.29 482.141L101.147 487.286Z" fill="#3D99F5"/>
<path fill-rule="evenodd" clip-rule="evenodd" d="M510 158C510 164.075 505.075 169 499 169C492.925 169 488 164.075 488 158C488 151.925 492.925 147 499 147C505.075 147 510 151.925 510 158ZM493.501 158C493.501 161.038 495.963 163.5 499.001 163.5C502.038 163.5 504.501 161.038 504.501 158C504.501 154.962 502.038 152.5 499.001 152.5C495.963 152.5 493.501 154.962 493.501 158Z" fill="#FF5975"/>
<path fill-rule="evenodd" clip-rule="evenodd" d="M65 459C65 465.075 60.0751 470 54 470C47.9249 470 43 465.075 43 459C43 452.925 47.9249 448 54 448C60.0751 448 65 452.925 65 459ZM48.5009 459C48.5009 462.038 50.9633 464.5 54.0009 464.5C57.0384 464.5 59.5009 462.038 59.5009 459C59.5009 455.962 57.0384 453.5 54.0009 453.5C50.9633 453.5 48.5009 455.962 48.5009 459Z" fill="#FF5975"/>
</svg>
