<svg width="600" height="520" viewBox="0 0 600 520" fill="none" xmlns="http://www.w3.org/2000/svg">
<rect x="272.203" y="9" width="260.715" height="260.715" rx="24" transform="rotate(67.692 272.203 9)" fill="#F2F6FF"/>
<rect x="452.199" y="11" width="185.855" height="185.855" rx="24" transform="rotate(74.6192 452.199 11)" fill="#FAFAFA"/>
<rect x="186.016" y="201" width="185.855" height="185.855" rx="24" transform="rotate(52.7867 186.016 201)" fill="#E5EEFF"/>
<path fill-rule="evenodd" clip-rule="evenodd" d="M341 348L351.862 354.41L349.112 356.243L352 360.168L349.251 362L346.363 358.075L343.614 359.907L341 348Z" fill="white"/>
<g filter="url(#filter0_d_2182_75304)">
<path d="M168 99C168 96.7909 169.791 95 172 95H467C469.209 95 471 96.7909 471 99V473C471 475.209 469.209 477 467 477H172C169.791 477 168 475.209 168 473V99Z" fill="white"/>
<path d="M169 99C169 97.3432 170.343 96 172 96H467C468.657 96 470 97.3431 470 99V473C470 474.657 468.657 476 467 476H172C170.343 476 169 474.657 169 473V99Z" stroke="#E8E8E8" stroke-width="2"/>
</g>
<path d="M193.848 125.333C193.848 124.022 194.91 122.959 196.221 122.959H385.065C386.376 122.959 387.438 124.022 387.438 125.333C387.438 126.644 386.376 127.706 385.065 127.706H196.221C194.91 127.706 193.848 126.644 193.848 125.333Z" fill="#F4F4F4"/>
<path d="M272 318.5C272 317.119 273.119 316 274.5 316H404.5C405.881 316 407 317.119 407 318.5C407 319.881 405.881 321 404.5 321H274.5C273.119 321 272 319.881 272 318.5Z" fill="#F4F4F4"/>
<path d="M193.848 137.991C193.848 136.68 194.91 135.617 196.221 135.617H406.164C407.475 135.617 408.538 136.68 408.538 137.991C408.538 139.302 407.475 140.365 406.164 140.365H196.221C194.91 140.365 193.848 139.302 193.848 137.991Z" fill="#F4F4F4"/>
<path d="M272 331C272 329.895 272.895 329 274 329H427C428.105 329 429 329.895 429 331C429 332.105 428.105 333 427 333H274C272.895 333 272 332.105 272 331Z" fill="#F4F4F4"/>
<path d="M193.848 151.706C193.848 150.395 194.91 149.332 196.221 149.332H348.14C349.451 149.332 350.514 150.395 350.514 151.706C350.514 153.017 349.451 154.079 348.14 154.079H196.221C194.91 154.079 193.848 153.017 193.848 151.706Z" fill="#F4F4F4"/>
<path d="M272 344.747C272 343.436 273.063 342.373 274.374 342.373H426.292C427.603 342.373 428.666 343.436 428.666 344.747C428.666 346.058 427.603 347.12 426.292 347.12H274.374C273.063 347.12 272 346.058 272 344.747Z" fill="#F4F4F4"/>
<path d="M193.848 191.796C193.848 190.485 194.91 189.422 196.221 189.422H443.089C444.4 189.422 445.463 190.485 445.463 191.796C445.463 193.107 444.4 194.169 443.089 194.169H196.221C194.91 194.169 193.848 193.107 193.848 191.796Z" fill="#F4F4F4"/>
<path d="M193.848 384.837C193.848 383.526 194.91 382.463 196.221 382.463H443.089C444.4 382.463 445.463 383.526 445.463 384.837C445.463 386.148 444.4 387.21 443.089 387.21H196.221C194.91 387.21 193.848 386.148 193.848 384.837Z" fill="#F4F4F4"/>
<path d="M193.848 202.874C193.848 201.563 194.91 200.5 196.221 200.5H432.539C433.85 200.5 434.913 201.563 434.913 202.874C434.913 204.185 433.85 205.247 432.539 205.247H196.221C194.91 205.247 193.848 204.185 193.848 202.874Z" fill="#F4F4F4"/>
<path d="M193.848 395.915C193.848 394.604 194.91 393.541 196.221 393.541H432.539C433.85 393.541 434.913 394.604 434.913 395.915C434.913 397.226 433.85 398.288 432.539 398.288H196.221C194.91 398.288 193.848 397.226 193.848 395.915Z" fill="#F4F4F4"/>
<path d="M193.848 213.952C193.848 212.641 194.91 211.578 196.221 211.578H437.814C439.125 211.578 440.188 212.641 440.188 213.952C440.188 215.263 439.125 216.326 437.814 216.326H196.221C194.91 216.326 193.848 215.263 193.848 213.952Z" fill="#F4F4F4"/>
<path d="M193.848 406.993C193.848 405.682 194.91 404.619 196.221 404.619H437.814C439.125 404.619 440.188 405.682 440.188 406.993C440.188 408.304 439.125 409.367 437.814 409.367H196.221C194.91 409.367 193.848 408.304 193.848 406.993Z" fill="#F4F4F4"/>
<path d="M193.848 225.028C193.848 223.717 194.91 222.654 196.221 222.654H437.814C439.125 222.654 440.188 223.717 440.188 225.028C440.188 226.339 439.125 227.402 437.814 227.402H196.221C194.91 227.402 193.848 226.339 193.848 225.028Z" fill="#F4F4F4"/>
<path d="M193.848 236.106C193.848 234.795 194.91 233.732 196.221 233.732H421.989C423.3 233.732 424.363 234.795 424.363 236.106C424.363 237.417 423.3 238.48 421.989 238.48H196.221C194.91 238.48 193.848 237.417 193.848 236.106Z" fill="#F4F4F4"/>
<path d="M193.848 247.182C193.848 245.871 194.91 244.809 196.221 244.809H421.989C423.3 244.809 424.363 245.871 424.363 247.182C424.363 248.493 423.3 249.556 421.989 249.556H196.221C194.91 249.556 193.848 248.493 193.848 247.182Z" fill="#F4F4F4"/>
<path d="M193.848 258.26C193.848 256.949 194.91 255.887 196.221 255.887H421.989C423.3 255.887 424.363 256.949 424.363 258.26C424.363 259.571 423.3 260.634 421.989 260.634H196.221C194.91 260.634 193.848 259.571 193.848 258.26Z" fill="#F4F4F4"/>
<path d="M193.848 269.339C193.848 268.028 194.91 266.965 196.221 266.965H421.989C423.3 266.965 424.363 268.028 424.363 269.339C424.363 270.65 423.3 271.712 421.989 271.712H196.221C194.91 271.712 193.848 270.65 193.848 269.339Z" fill="#F4F4F4"/>
<path d="M272 296.241C272 294.93 273.063 293.867 274.374 293.867H378.818C380.129 293.867 381.191 294.93 381.191 296.241C381.191 297.552 380.129 298.615 378.818 298.615H274.374C273.063 298.615 272 297.552 272 296.241Z" fill="#F4F4F4"/>
<path d="M272 355.5C272 354.119 273.119 353 274.5 353H394.5C395.881 353 397 354.119 397 355.5C397 356.881 395.881 358 394.5 358H274.5C273.119 358 272 356.881 272 355.5Z" fill="#F4F4F4"/>
<path d="M272 307.317C272 306.006 273.063 304.943 274.374 304.943H378.818C380.129 304.943 381.191 306.006 381.191 307.317C381.191 308.628 380.129 309.691 378.818 309.691H274.374C273.063 309.691 272 308.628 272 307.317Z" fill="#F4F4F4"/>
<rect x="194" y="290" width="65" height="72" rx="6" fill="#F4F4F4"/>
<rect x="208" y="430" width="41" height="41" rx="4" fill="#FF8000"/>
<path fill-rule="evenodd" clip-rule="evenodd" d="M232.418 440.75H231.28V440.75H219.889H218.75V441.889V456.695H218.751V456.695H225.584V460.111V461.25V461.25H226.723V461.25H238.113V461.25H239.252V445.306V444.167H238.113H232.418V440.75ZM238.113 445.306V460.111H226.723V456.695H232.417V456.694H232.418V445.306H238.113ZM231.28 444.167V441.889H219.889V455.556H225.584H226.723H231.28V445.306V444.167ZM221.03 449.861C221.03 452.377 223.069 454.417 225.585 454.417C228.101 454.417 230.141 452.377 230.141 449.861C230.141 447.345 228.101 445.306 225.585 445.306C223.069 445.306 221.03 447.345 221.03 449.861ZM228.806 451C228.337 452.327 227.072 453.278 225.584 453.278C223.697 453.278 222.167 451.748 222.167 449.861C222.167 448.168 223.398 446.763 225.013 446.492V451H225.584H226.152H228.806ZM229.001 449.861C229.001 448.168 227.769 446.762 226.152 446.491V449.861L229.001 449.861Z" fill="white"/>
<rect x="156" y="471" width="41" height="41" rx="4" fill="#F23030"/>
<path fill-rule="evenodd" clip-rule="evenodd" d="M168.512 483.511L170.635 492L168.512 500.489L177.001 498.367L185.491 500.489L183.368 492L185.491 483.511L177.001 485.633L168.512 483.511ZM166.75 481.75L177 484.312L187.25 481.75L184.688 492L187.25 502.25L177 499.688L166.75 502.25L169.312 492L166.75 481.75Z" fill="white"/>
<rect x="143" y="397" width="54" height="54" rx="4" fill="#FF5975"/>
<path fill-rule="evenodd" clip-rule="evenodd" d="M164.434 431.864C165.793 433.206 167.249 434.259 168.699 435.052C169.233 435.343 169.684 435.558 170.028 435.705C170.366 435.572 170.811 435.375 171.336 435.104C172.778 434.362 174.224 433.354 175.576 432.044C179.206 428.526 181.491 423.535 181.782 416.72C180.854 416.373 179.86 416 176.157 414.611L169.407 412.08H170.592L163.842 414.611L159.201 416.351C158.658 416.555 158.444 416.635 158.218 416.72C158.514 423.327 160.8 428.275 164.434 431.864ZM156.5 415.562C156.5 415.562 170 410.5 170 410.5C170 410.5 183.5 415.562 183.5 415.562C183.337 433.655 170 437.5 170 437.5C170 437.5 156.66 433.146 156.5 415.562Z" fill="white"/>
<rect x="336" y="147" width="233" height="91" rx="6.39134" fill="#F4F4F4"/>
<path d="M355.699 166.85C355.699 165.276 356.975 164 358.549 164H389.899L401.299 175.4V218.15C401.299 219.724 400.023 221 398.449 221H358.549C356.975 221 355.699 219.724 355.699 218.15V166.85Z" fill="white"/>
<path fill-rule="evenodd" clip-rule="evenodd" d="M358.549 219.575H398.449C399.236 219.575 399.874 218.937 399.874 218.15V175.99L389.309 165.425H358.549C357.762 165.425 357.124 166.063 357.124 166.85V218.15C357.124 218.937 357.762 219.575 358.549 219.575ZM389.899 164H358.549C356.975 164 355.699 165.276 355.699 166.85V218.15C355.699 219.724 356.975 221 358.549 221H398.449C400.023 221 401.299 219.724 401.299 218.15V175.4L389.899 164Z" fill="#E8E8E8"/>
<path d="M389.899 164L401.299 175.4H389.899V164Z" fill="#E8E8E8"/>
<rect x="350.25" y="192.475" width="33.7" height="20" rx="2.85" fill="#F23030"/>
<path d="M354.551 208.476V198.256H358.062C358.626 198.256 359.154 198.313 359.645 198.428C360.136 198.533 360.565 198.716 360.931 198.977C361.296 199.228 361.584 199.567 361.793 199.996C362.012 200.414 362.122 200.931 362.122 201.548C362.122 202.143 362.012 202.661 361.793 203.099C361.584 203.538 361.296 203.899 360.931 204.181C360.565 204.463 360.142 204.672 359.661 204.808C359.18 204.944 358.668 205.012 358.125 205.012H356.855V208.476H354.551ZM356.855 203.178H357.984C359.238 203.178 359.865 202.634 359.865 201.548C359.865 201.015 359.697 200.638 359.363 200.419C359.029 200.2 358.548 200.09 357.921 200.09H356.855V203.178Z" fill="white"/>
<path d="M363.888 208.476V198.256H366.773C367.556 198.256 368.262 198.355 368.889 198.554C369.516 198.752 370.054 199.061 370.503 199.479C370.953 199.886 371.297 200.409 371.538 201.046C371.778 201.683 371.898 202.441 371.898 203.319C371.898 204.197 371.778 204.96 371.538 205.607C371.297 206.255 370.958 206.794 370.519 207.222C370.08 207.64 369.552 207.953 368.936 208.162C368.33 208.371 367.65 208.476 366.898 208.476H363.888ZM366.193 206.611H366.632C367.07 206.611 367.468 206.553 367.823 206.438C368.178 206.323 368.481 206.14 368.732 205.89C368.983 205.628 369.176 205.289 369.312 204.871C369.458 204.453 369.531 203.935 369.531 203.319C369.531 202.713 369.458 202.206 369.312 201.798C369.176 201.38 368.983 201.051 368.732 200.811C368.481 200.56 368.178 200.382 367.823 200.278C367.468 200.173 367.07 200.121 366.632 200.121H366.193V206.611Z" fill="white"/>
<path d="M373.838 208.476V198.256H380.281V200.2H376.143V202.566H379.685V204.51H376.143V208.476H373.838Z" fill="white"/>
<path d="M469.898 121.95C469.898 119.768 471.667 118 473.848 118H517.298L533.098 133.8V193.05C533.098 195.232 531.33 197 529.148 197H473.848C471.667 197 469.898 195.232 469.898 193.05V121.95Z" fill="white"/>
<path fill-rule="evenodd" clip-rule="evenodd" d="M473.852 195.025H529.152C530.243 195.025 531.127 194.141 531.127 193.05V134.618L516.484 119.975H473.852C472.762 119.975 471.877 120.859 471.877 121.95V193.05C471.877 194.141 472.762 195.025 473.852 195.025ZM517.302 118H473.852C471.671 118 469.902 119.768 469.902 121.95V193.05C469.902 195.232 471.671 197 473.852 197H529.152C531.334 197 533.102 195.232 533.102 193.05V133.8L517.302 118Z" fill="#E8E8E8"/>
<path d="M517.302 118L533.102 133.8H517.302V118Z" fill="#E8E8E8"/>
<rect x="461.738" y="157.824" width="49.9" height="27" rx="3.95" fill="#3D99F5"/>
<path d="M467.719 178.826V164.661H471.716C472.802 164.661 473.78 164.799 474.649 165.074C475.518 165.349 476.264 165.776 476.887 166.356C477.509 166.92 477.987 167.645 478.321 168.528C478.654 169.412 478.82 170.462 478.82 171.678C478.82 172.895 478.654 173.952 478.321 174.85C477.987 175.748 477.517 176.494 476.908 177.088C476.3 177.667 475.569 178.102 474.714 178.391C473.874 178.681 472.933 178.826 471.89 178.826H467.719ZM470.912 176.241H471.521C472.129 176.241 472.679 176.161 473.172 176.002C473.664 175.842 474.084 175.589 474.432 175.241C474.779 174.879 475.047 174.408 475.236 173.829C475.438 173.25 475.54 172.533 475.54 171.678C475.54 170.838 475.438 170.136 475.236 169.571C475.047 168.992 474.779 168.535 474.432 168.202C474.084 167.855 473.664 167.608 473.172 167.464C472.679 167.319 472.129 167.246 471.521 167.246H470.912V176.241Z" fill="white"/>
<path d="M487.266 179.086C486.31 179.086 485.434 178.92 484.637 178.587C483.855 178.239 483.182 177.747 482.617 177.11C482.052 176.472 481.61 175.697 481.292 174.785C480.988 173.872 480.836 172.837 480.836 171.678C480.836 170.52 480.988 169.491 481.292 168.593C481.61 167.681 482.052 166.92 482.617 166.312C483.182 165.689 483.855 165.219 484.637 164.9C485.434 164.567 486.31 164.4 487.266 164.4C488.222 164.4 489.091 164.567 489.873 164.9C490.67 165.219 491.35 165.689 491.915 166.312C492.48 166.935 492.915 167.703 493.219 168.615C493.537 169.513 493.697 170.534 493.697 171.678C493.697 172.837 493.537 173.872 493.219 174.785C492.915 175.697 492.48 176.472 491.915 177.11C491.35 177.747 490.67 178.239 489.873 178.587C489.091 178.92 488.222 179.086 487.266 179.086ZM487.266 176.327C488.237 176.327 489.004 175.915 489.569 175.089C490.134 174.249 490.416 173.112 490.416 171.678C490.416 170.259 490.134 169.151 489.569 168.354C489.004 167.558 488.237 167.159 487.266 167.159C486.296 167.159 485.528 167.558 484.963 168.354C484.398 169.151 484.116 170.259 484.116 171.678C484.116 173.112 484.398 174.249 484.963 175.089C485.528 175.915 486.296 176.327 487.266 176.327Z" fill="white"/>
<path d="M502.269 179.086C501.371 179.086 500.524 178.934 499.727 178.63C498.931 178.312 498.228 177.848 497.62 177.24C497.026 176.632 496.556 175.878 496.208 174.98C495.86 174.068 495.687 173.018 495.687 171.83C495.687 170.657 495.868 169.614 496.23 168.702C496.592 167.775 497.077 166.993 497.685 166.356C498.294 165.718 499.003 165.233 499.814 164.9C500.625 164.567 501.48 164.4 502.378 164.4C503.29 164.4 504.109 164.589 504.833 164.965C505.557 165.327 506.158 165.755 506.636 166.247L504.941 168.289C504.579 167.956 504.196 167.688 503.79 167.485C503.399 167.268 502.95 167.159 502.443 167.159C501.965 167.159 501.509 167.268 501.074 167.485C500.654 167.688 500.285 167.985 499.966 168.376C499.662 168.767 499.416 169.245 499.228 169.81C499.054 170.375 498.967 171.012 498.967 171.722C498.967 173.185 499.279 174.321 499.901 175.133C500.524 175.929 501.357 176.327 502.4 176.327C502.979 176.327 503.493 176.204 503.942 175.958C504.406 175.697 504.811 175.379 505.159 175.002L506.853 177.001C505.666 178.391 504.138 179.086 502.269 179.086Z" fill="white"/>
<path d="M449.199 211.1C449.199 209.388 450.587 208 452.299 208H486.399L498.799 220.4V266.9C498.799 268.612 497.411 270 495.699 270H452.299C450.587 270 449.199 268.612 449.199 266.9V211.1Z" fill="white"/>
<path fill-rule="evenodd" clip-rule="evenodd" d="M452.299 268.45H495.699C496.555 268.45 497.249 267.756 497.249 266.9V221.042L485.757 209.55H452.299C451.443 209.55 450.749 210.244 450.749 211.1V266.9C450.749 267.756 451.443 268.45 452.299 268.45ZM486.399 208H452.299C450.587 208 449.199 209.388 449.199 211.1V266.9C449.199 268.612 450.587 270 452.299 270H495.699C497.411 270 498.799 268.612 498.799 266.9V220.4L486.399 208Z" fill="#E8E8E8"/>
<path d="M486.399 208L498.799 220.4H486.399V208Z" fill="#E8E8E8"/>
<rect x="443.5" y="239.35" width="36.2" height="21" rx="3.1" fill="#FF8000"/>
<path d="M448.137 256.351V245.234H451.956C452.57 245.234 453.144 245.297 453.678 245.422C454.212 245.536 454.678 245.735 455.076 246.019C455.474 246.291 455.786 246.661 456.014 247.127C456.253 247.582 456.372 248.144 456.372 248.815C456.372 249.463 456.253 250.025 456.014 250.503C455.786 250.98 455.474 251.372 455.076 251.679C454.678 251.986 454.218 252.214 453.695 252.361C453.172 252.509 452.615 252.583 452.024 252.583H450.643V256.351H448.137ZM450.643 250.588H451.871C453.235 250.588 453.917 249.997 453.917 248.815C453.917 248.235 453.735 247.826 453.371 247.587C453.007 247.349 452.484 247.229 451.802 247.229H450.643V250.588Z" fill="white"/>
<path d="M458.293 256.351V245.234H462.113C462.726 245.234 463.3 245.297 463.835 245.422C464.369 245.536 464.835 245.735 465.233 246.019C465.631 246.291 465.943 246.661 466.171 247.127C466.409 247.582 466.529 248.144 466.529 248.815C466.529 249.463 466.409 250.025 466.171 250.503C465.943 250.98 465.631 251.372 465.233 251.679C464.835 251.986 464.375 252.214 463.852 252.361C463.329 252.509 462.772 252.583 462.181 252.583H460.8V256.351H458.293ZM460.8 250.588H462.027C463.391 250.588 464.073 249.997 464.073 248.815C464.073 248.235 463.892 247.826 463.528 247.587C463.164 247.349 462.641 247.229 461.959 247.229H460.8V250.588Z" fill="white"/>
<path d="M470.382 256.351V247.349H467.33V245.234H475.958V247.349H472.906V256.351H470.382Z" fill="white"/>
<path d="M521.602 210.3C521.602 209.03 522.631 208 523.902 208H549.202L558.402 217.2V251.7C558.402 252.97 557.372 254 556.102 254H523.902C522.631 254 521.602 252.97 521.602 251.7V210.3Z" fill="white"/>
<path fill-rule="evenodd" clip-rule="evenodd" d="M523.902 252.85H556.102C556.737 252.85 557.252 252.335 557.252 251.7V217.676L548.725 209.15H523.902C523.266 209.15 522.752 209.665 522.752 210.3V251.7C522.752 252.335 523.266 252.85 523.902 252.85ZM549.202 208H523.902C522.631 208 521.602 209.03 521.602 210.3V251.7C521.602 252.97 522.631 254 523.902 254H556.102C557.372 254 558.402 252.97 558.402 251.7V217.2L549.202 208Z" fill="#E8E8E8"/>
<path d="M549.202 208L558.402 217.2H549.202L549.202 208Z" fill="#E8E8E8"/>
<rect x="516.852" y="231.051" width="25.6" height="16" rx="2.3" fill="#00CC44"/>
<path d="M519.59 243.05L521.879 238.812L519.729 234.802H521.804L522.525 236.358C522.617 236.552 522.71 236.759 522.803 236.978C522.896 237.189 523.001 237.425 523.119 237.686H523.17C523.263 237.425 523.351 237.189 523.435 236.978C523.528 236.759 523.617 236.552 523.701 236.358L524.359 234.802H526.345L524.207 238.901L526.484 243.05H524.409L523.587 241.368C523.486 241.148 523.385 240.933 523.284 240.722C523.191 240.503 523.085 240.267 522.967 240.014H522.917C522.824 240.267 522.731 240.503 522.638 240.722C522.546 240.933 522.453 241.148 522.36 241.368L521.589 243.05H519.59Z" fill="white"/>
<path d="M527.602 243.05V234.802H529.462V241.481H532.725V243.05H527.602Z" fill="white"/>
<path d="M536.309 243.202C535.769 243.202 535.229 243.105 534.689 242.911C534.158 242.708 533.682 242.409 533.26 242.013L534.323 240.735C534.618 240.988 534.942 241.195 535.297 241.355C535.659 241.515 536.013 241.595 536.359 241.595C536.747 241.595 537.034 241.524 537.219 241.38C537.413 241.237 537.51 241.043 537.51 240.798C537.51 240.672 537.481 240.562 537.422 240.469C537.371 240.377 537.291 240.297 537.181 240.229C537.08 240.153 536.954 240.086 536.802 240.027C536.659 239.959 536.498 239.887 536.321 239.812L535.246 239.356C535.035 239.272 534.829 239.162 534.626 239.027C534.432 238.892 534.255 238.736 534.095 238.559C533.943 238.374 533.821 238.163 533.728 237.927C533.635 237.682 533.589 237.408 533.589 237.104C533.589 236.767 533.661 236.451 533.804 236.156C533.947 235.852 534.15 235.591 534.411 235.371C534.673 235.144 534.98 234.967 535.335 234.84C535.697 234.714 536.094 234.65 536.524 234.65C537.004 234.65 537.477 234.743 537.94 234.929C538.413 235.114 538.826 235.384 539.18 235.738L538.231 236.915C537.962 236.704 537.692 236.544 537.422 236.434C537.152 236.316 536.853 236.257 536.524 236.257C536.203 236.257 535.946 236.324 535.752 236.459C535.566 236.586 535.474 236.767 535.474 237.003C535.474 237.13 535.503 237.239 535.562 237.332C535.63 237.417 535.718 237.497 535.828 237.573C535.946 237.64 536.081 237.707 536.233 237.775C536.384 237.834 536.549 237.901 536.726 237.977L537.789 238.407C538.295 238.61 538.691 238.888 538.978 239.242C539.273 239.597 539.42 240.065 539.42 240.646C539.42 240.992 539.349 241.321 539.205 241.633C539.071 241.937 538.868 242.207 538.598 242.443C538.337 242.67 538.012 242.856 537.624 242.999C537.236 243.134 536.798 243.202 536.309 243.202Z" fill="white"/>
<path d="M439.507 196.167L430.75 188.2L432.046 187L443 197L432.046 207L430.75 205.8L439.507 197.833H415V196.167H439.507Z" fill="#9E9E9E"/>
<path opacity="0.3" fill-rule="evenodd" clip-rule="evenodd" d="M539.316 363.939L558.784 391.742L536.134 387.748C535.59 387.653 535.227 387.134 535.322 386.59L539.316 363.939Z" fill="white"/>
<path opacity="0.3" fill-rule="evenodd" clip-rule="evenodd" d="M466.043 387.168L493.846 406.636L471.195 410.63C470.651 410.726 470.133 410.362 470.037 409.819L466.043 387.168Z" fill="white"/>
<path fill-rule="evenodd" clip-rule="evenodd" d="M143.847 340.608C143.78 340.06 144.171 339.561 144.719 339.494C145.84 339.357 146.926 339.161 147.977 338.909C148.514 338.78 149.054 339.111 149.182 339.648C149.311 340.185 148.98 340.725 148.443 340.854C147.318 341.123 146.158 341.333 144.961 341.479C144.413 341.546 143.914 341.156 143.847 340.608ZM147.174 155.039C147.239 157.266 147.345 159.488 147.537 161.678C147.585 162.229 147.178 162.714 146.628 162.762C146.078 162.81 145.593 162.403 145.544 161.853C145.348 159.611 145.24 157.347 145.174 155.098C145.158 154.545 145.593 154.085 146.145 154.069C146.697 154.053 147.157 154.487 147.174 155.039ZM146 144.889C145.448 144.904 144.989 144.468 144.974 143.916C144.943 142.787 144.902 141.678 144.844 140.592C144.787 139.531 144.765 138.429 144.777 137.291C144.783 136.739 145.235 136.296 145.787 136.302C146.339 136.308 146.783 136.76 146.777 137.312C146.765 138.41 146.787 139.47 146.841 140.485C146.9 141.593 146.942 142.721 146.973 143.862C146.988 144.414 146.552 144.874 146 144.889ZM148.241 171.79C148.769 171.627 149.329 171.923 149.492 172.45C149.815 173.496 150.183 174.517 150.601 175.509C151.071 176.623 151.472 177.76 151.843 178.891C152.015 179.415 151.73 179.98 151.205 180.153C150.68 180.325 150.115 180.039 149.943 179.514C149.58 178.409 149.198 177.33 148.758 176.286C148.312 175.228 147.922 174.144 147.581 173.041C147.418 172.513 147.713 171.953 148.241 171.79ZM146.604 127.526C146.059 127.436 145.69 126.921 145.78 126.376C146.127 124.267 146.564 122.114 147.091 119.947C147.221 119.41 147.762 119.081 148.299 119.212C148.835 119.342 149.165 119.883 149.034 120.419C148.519 122.538 148.092 124.641 147.753 126.701C147.663 127.246 147.149 127.615 146.604 127.526ZM157.701 335.729C157.38 335.28 157.485 334.655 157.935 334.335C159.729 333.055 161.393 331.583 162.938 329.961C163.319 329.561 163.952 329.545 164.352 329.926C164.752 330.307 164.767 330.94 164.386 331.34C162.764 333.044 161.005 334.602 159.096 335.963C158.646 336.284 158.021 336.179 157.701 335.729ZM152.467 196.461C152.522 198.528 152.677 200.646 152.903 202.722C152.963 203.271 152.567 203.765 152.018 203.825C151.469 203.885 150.975 203.488 150.915 202.939C150.683 200.816 150.525 198.643 150.468 196.515C150.453 195.962 150.888 195.503 151.441 195.488C151.993 195.473 152.452 195.909 152.467 196.461ZM153.473 212.298C154.009 212.165 154.551 212.492 154.684 213.028C154.961 214.147 155.247 215.15 155.53 216.007C155.863 217.011 156.209 218.023 156.569 219.038C156.754 219.559 156.481 220.13 155.96 220.315C155.44 220.499 154.868 220.227 154.684 219.706C154.32 218.678 153.968 217.654 153.631 216.636C153.328 215.72 153.029 214.666 152.742 213.509C152.61 212.973 152.937 212.431 153.473 212.298ZM152.111 186.926C151.576 186.789 151.254 186.244 151.392 185.709C151.691 184.545 152.074 183.469 152.559 182.525C153.133 181.407 153.808 180.418 154.571 179.551C154.935 179.136 155.567 179.096 155.982 179.46C156.397 179.825 156.437 180.457 156.073 180.872C155.423 181.611 154.84 182.463 154.338 183.439C153.937 184.219 153.601 185.148 153.329 186.207C153.191 186.742 152.646 187.064 152.111 186.926ZM154.661 189.241C155.123 188.939 155.743 189.07 156.044 189.533C156.636 190.44 157.32 191.292 158.131 192.078C158.626 192.556 159.204 192.998 159.848 193.396C160.319 193.686 160.465 194.302 160.175 194.772C159.885 195.242 159.269 195.388 158.799 195.098C158.046 194.634 157.351 194.105 156.74 193.515C155.811 192.615 155.034 191.644 154.369 190.625C154.067 190.162 154.198 189.543 154.661 189.241ZM150.906 110.795C150.39 110.598 150.131 110.021 150.328 109.505C151.111 107.453 151.976 105.431 152.925 103.467C153.165 102.969 153.763 102.761 154.261 103.001C154.758 103.241 154.966 103.839 154.726 104.336C153.804 106.246 152.96 108.215 152.196 110.217C151.999 110.733 151.422 110.992 150.906 110.795ZM159.138 228.468C159.647 228.253 160.234 228.491 160.449 228.999C161.282 230.966 162.151 232.927 163.048 234.867C163.28 235.368 163.062 235.963 162.56 236.194C162.059 236.426 161.465 236.208 161.233 235.707C160.327 233.747 159.449 231.767 158.607 229.779C158.392 229.27 158.63 228.684 159.138 228.468ZM169.946 322.371C169.471 322.089 169.314 321.476 169.596 321.001C170.74 319.072 171.789 317.069 172.755 315.032C172.992 314.533 173.588 314.321 174.087 314.557C174.586 314.794 174.799 315.391 174.562 315.89C173.574 317.974 172.496 320.031 171.316 322.021C171.035 322.496 170.421 322.653 169.946 322.371ZM166.446 244.035C166.934 243.776 167.54 243.962 167.798 244.45C168.304 245.402 168.814 246.343 169.327 247.27C169.754 248.042 170.179 248.822 170.6 249.609C170.861 250.096 170.677 250.702 170.19 250.962C169.703 251.223 169.097 251.039 168.837 250.552C168.42 249.774 168 249.002 167.577 248.238C167.058 247.301 166.543 246.35 166.032 245.387C165.773 244.899 165.958 244.294 166.446 244.035ZM158.742 95.419C158.295 95.0935 158.198 94.4679 158.523 94.0217C159.849 92.2043 161.273 90.5032 162.796 88.9538C163.183 88.5599 163.816 88.5545 164.21 88.9416C164.604 89.3288 164.61 89.9619 164.222 90.3558C162.775 91.8283 161.413 93.4533 160.139 95.2004C159.813 95.6466 159.188 95.7445 158.742 95.419ZM164.222 175.754C164.18 175.204 164.593 174.724 165.144 174.682C166.29 174.596 167.46 174.6 168.639 174.684C169.912 174.775 171.034 175.047 172.019 175.483C172.524 175.707 172.752 176.297 172.528 176.802C172.304 177.307 171.713 177.535 171.208 177.311C170.461 176.98 169.569 176.755 168.497 176.679C167.406 176.601 166.333 176.598 165.294 176.676C164.743 176.718 164.263 176.305 164.222 175.754ZM165.866 196.469C165.895 195.917 166.366 195.494 166.918 195.524C168.468 195.607 169.968 195.448 171.282 195.034C171.809 194.868 172.37 195.16 172.536 195.687C172.702 196.214 172.41 196.776 171.883 196.942C170.302 197.44 168.555 197.614 166.811 197.521C166.259 197.491 165.836 197.02 165.866 196.469ZM173.242 257.08C173.744 256.849 174.337 257.07 174.567 257.572C175.308 259.188 176.017 260.826 176.683 262.484C176.889 262.997 176.641 263.579 176.129 263.785C175.616 263.991 175.034 263.743 174.828 263.23C174.174 261.604 173.478 259.995 172.749 258.405C172.519 257.903 172.74 257.31 173.242 257.08ZM177.621 305.837C177.1 305.654 176.826 305.083 177.009 304.562C177.391 303.476 177.754 302.401 178.1 301.341C178.37 300.514 178.612 299.686 178.827 298.855C178.966 298.321 179.512 298 180.046 298.138C180.581 298.277 180.902 298.823 180.763 299.357C180.538 300.227 180.284 301.096 180.001 301.963C179.651 303.034 179.283 304.124 178.896 305.225C178.713 305.746 178.142 306.02 177.621 305.837ZM178.377 270.24C178.907 270.086 179.462 270.392 179.615 270.922C180.115 272.647 180.554 274.386 180.922 276.136C181.035 276.677 180.689 277.207 180.149 277.32C179.608 277.434 179.078 277.088 178.965 276.547C178.608 274.849 178.181 273.159 177.694 271.479C177.541 270.948 177.846 270.393 178.377 270.24ZM181.077 291.387C180.525 291.357 180.102 290.886 180.131 290.335C180.224 288.605 180.217 286.874 180.123 285.144C180.092 284.593 180.515 284.121 181.066 284.091C181.618 284.061 182.089 284.484 182.12 285.035C182.218 286.833 182.225 288.636 182.128 290.441C182.099 290.993 181.628 291.416 181.077 291.387ZM176.596 191.507C176.055 191.396 175.706 190.869 175.816 190.327C175.944 189.697 175.997 188.99 175.955 188.2C175.9 187.171 175.817 186.146 175.681 185.154C175.606 184.606 175.989 184.102 176.536 184.027C177.083 183.952 177.587 184.335 177.662 184.882C177.808 185.947 177.895 187.03 177.952 188.093C178.002 189.036 177.941 189.914 177.776 190.726C177.666 191.267 177.138 191.617 176.596 191.507ZM171.28 83.7178C171.039 83.2208 171.246 82.6227 171.743 82.3818C172.754 81.8922 173.793 81.4649 174.861 81.1058C176.23 80.6457 177.574 80.2306 178.905 79.857C179.437 79.7077 179.989 80.0177 180.138 80.5495C180.287 81.0812 179.977 81.6333 179.446 81.7825C178.148 82.1467 176.836 82.5517 175.498 83.0015C174.513 83.3328 173.552 83.7276 172.616 84.1816C172.119 84.4225 171.521 84.2148 171.28 83.7178ZM191.871 78.3996C191.819 77.8498 192.223 77.3619 192.773 77.3099C194.148 77.1799 195.548 77.0784 196.984 77.0017C197.536 76.9722 198.007 77.3954 198.036 77.9469C198.066 78.4984 197.642 78.9694 197.091 78.9988C195.679 79.0743 194.306 79.1738 192.961 79.3011C192.411 79.3531 191.923 78.9495 191.871 78.3996Z" fill="#CCDDFF"/>
<path fill-rule="evenodd" clip-rule="evenodd" d="M200.685 87.0523C199.98 86.6173 199.761 85.6931 200.196 84.9881C202.103 81.8976 204.31 79.504 207.362 77.6999C205.132 76.3799 202.21 74.1468 200.24 71.0782C199.793 70.3811 199.995 69.4531 200.692 69.0055C201.389 68.558 202.317 68.7602 202.765 69.4574C205.064 73.0381 209.052 75.3683 210.709 76.0528C210.756 76.072 210.801 76.0935 210.845 76.1172C210.921 76.1331 211.092 76.1751 211.281 76.2808C211.522 76.4155 211.877 76.7071 212.011 77.2249C212.13 77.6861 212 78.0561 211.935 78.2079C211.865 78.3723 211.781 78.4897 211.742 78.5411C211.636 78.6842 211.476 78.8398 211.394 78.92C211.386 78.9285 211.378 78.9361 211.371 78.9427C211.241 79.0711 211.088 79.1745 210.92 79.2478C207.237 80.859 204.849 83.1614 202.749 86.5635C202.314 87.2685 201.39 87.4874 200.685 87.0523Z" fill="#CCDDFF"/>
<path fill-rule="evenodd" clip-rule="evenodd" d="M141.109 346.928L137.712 357.4C136.517 361.085 138.562 365.093 142.28 366.351C145.998 367.61 149.981 365.643 151.176 361.957C152.372 358.272 150.327 354.264 146.609 353.006C144.885 352.422 143.103 352.532 141.569 353.185L144.211 345.042L159.676 335.642L158.089 335.315C156.918 335.075 155.707 335.282 154.698 335.895L145.331 341.589L148.714 331.161C149.078 330.039 149 328.812 148.496 327.728L147.813 326.259L142.229 343.474L134.913 347.922C135.195 346.279 134.892 344.52 133.927 342.977C131.845 339.649 127.474 338.582 124.163 340.595C120.853 342.607 119.856 346.936 121.938 350.264C124.019 353.592 128.39 354.659 131.701 352.646L141.109 346.928ZM123.935 349.051C125.322 351.27 128.236 351.981 130.444 350.639C132.651 349.298 133.315 346.412 131.927 344.193C130.54 341.974 127.626 341.263 125.419 342.605C123.211 343.946 122.547 346.833 123.935 349.051ZM142.998 364.126C145.477 364.965 148.132 363.654 148.929 361.197C149.726 358.74 148.363 356.068 145.884 355.229C143.405 354.39 140.75 355.702 139.953 358.158C139.156 360.615 140.519 363.287 142.998 364.126Z" fill="#0055FF"/>
<path d="M137.712 357.4L137.179 357.227L137.712 357.4ZM141.109 346.928L141.642 347.1L142.108 345.665L140.818 346.449L141.109 346.928ZM142.28 366.351L142.459 365.821L142.28 366.351ZM151.176 361.957L151.709 362.13L151.176 361.957ZM146.609 353.006L146.788 352.475L146.609 353.006ZM141.569 353.185L141.037 353.013L140.657 354.183L141.789 353.701L141.569 353.185ZM144.211 345.042L143.92 344.563L143.742 344.671L143.678 344.869L144.211 345.042ZM159.676 335.642L159.967 336.12L161.185 335.38L159.788 335.093L159.676 335.642ZM158.089 335.315L158.202 334.767L158.202 334.767L158.089 335.315ZM154.698 335.895L154.407 335.416L154.407 335.416L154.698 335.895ZM145.331 341.589L144.798 341.416L144.332 342.852L145.622 342.068L145.331 341.589ZM148.714 331.161L148.181 330.988L148.181 330.988L148.714 331.161ZM148.496 327.728L149.004 327.492L148.496 327.728ZM147.813 326.259L148.321 326.023L147.72 324.73L147.28 326.087L147.813 326.259ZM142.229 343.474L142.52 343.953L142.698 343.845L142.762 343.647L142.229 343.474ZM134.913 347.922L134.361 347.827L134.152 349.04L135.204 348.401L134.913 347.922ZM133.927 342.977L134.402 342.679L133.927 342.977ZM124.163 340.595L124.455 341.073L124.163 340.595ZM121.938 350.264L122.413 349.967L121.938 350.264ZM131.701 352.646L131.992 353.125L131.701 352.646ZM138.245 357.573L141.642 347.1L140.576 346.755L137.179 357.227L138.245 357.573ZM142.459 365.821C139.025 364.658 137.146 360.96 138.245 357.573L137.179 357.227C135.887 361.21 138.098 365.527 142.1 366.882L142.459 365.821ZM150.643 361.784C149.546 365.166 145.888 366.981 142.459 365.821L142.1 366.882C146.107 368.238 150.415 366.119 151.709 362.13L150.643 361.784ZM146.429 353.536C149.863 354.699 151.742 358.397 150.643 361.784L151.709 362.13C153.002 358.147 150.791 353.829 146.788 352.475L146.429 353.536ZM141.789 353.701C143.199 353.1 144.839 352.998 146.429 353.536L146.788 352.475C144.93 351.846 143.007 351.964 141.35 352.67L141.789 353.701ZM143.678 344.869L141.037 353.013L142.102 353.358L144.744 345.215L143.678 344.869ZM159.384 335.163L143.92 344.563L144.502 345.521L159.967 336.12L159.384 335.163ZM157.976 335.864L159.563 336.191L159.788 335.093L158.202 334.767L157.976 335.864ZM154.989 336.374C155.875 335.835 156.942 335.652 157.976 335.864L158.202 334.767C156.894 334.498 155.538 334.729 154.407 335.416L154.989 336.374ZM145.622 342.068L154.989 336.374L154.407 335.416L145.04 341.11L145.622 342.068ZM148.181 330.988L144.798 341.416L145.864 341.762L149.247 331.334L148.181 330.988ZM147.988 327.965C148.433 328.922 148.501 330.002 148.181 330.988L149.247 331.334C149.655 330.075 149.567 328.702 149.004 327.492L147.988 327.965ZM147.305 326.496L147.988 327.965L149.004 327.492L148.321 326.023L147.305 326.496ZM142.762 343.647L148.346 326.432L147.28 326.087L141.696 343.302L142.762 343.647ZM135.204 348.401L142.52 343.953L141.938 342.996L134.622 347.443L135.204 348.401ZM133.452 343.274C134.342 344.697 134.62 346.316 134.361 347.827L135.465 348.017C135.77 346.241 135.442 344.343 134.402 342.679L133.452 343.274ZM124.455 341.073C127.497 339.224 131.529 340.2 133.452 343.274L134.402 342.679C132.161 339.097 127.451 337.94 123.872 340.116L124.455 341.073ZM122.413 349.967C120.493 346.898 121.417 342.92 124.455 341.073L123.872 340.116C120.289 342.294 119.219 346.975 121.463 350.561L122.413 349.967ZM131.41 352.168C128.367 354.017 124.335 353.041 122.413 349.967L121.463 350.561C123.703 354.144 128.413 355.3 131.992 353.125L131.41 352.168ZM140.818 346.449L131.41 352.168L131.992 353.125L141.4 347.406L140.818 346.449ZM123.46 349.348C125.006 351.821 128.26 352.623 130.735 351.118L130.152 350.161C128.213 351.339 125.638 350.719 124.41 348.754L123.46 349.348ZM130.735 351.118C133.215 349.611 133.952 346.373 132.403 343.896L131.452 344.49C132.678 346.45 132.087 348.985 130.152 350.161L130.735 351.118ZM132.403 343.896C130.856 341.423 127.603 340.622 125.128 342.126L125.71 343.084C127.649 341.905 130.224 342.526 131.452 344.49L132.403 343.896ZM125.128 342.126C122.648 343.633 121.91 346.871 123.46 349.348L124.41 348.754C123.184 346.794 123.775 344.259 125.71 343.084L125.128 342.126ZM142.818 364.657C145.586 365.594 148.567 364.13 149.462 361.37L148.396 361.024C147.698 363.177 145.367 364.337 143.178 363.596L142.818 364.657ZM149.462 361.37C150.356 358.615 148.826 355.633 146.064 354.698L145.704 355.76C147.899 356.503 149.096 358.865 148.396 361.024L149.462 361.37ZM146.064 354.698C143.296 353.761 140.315 355.225 139.42 357.986L140.486 358.331C141.184 356.178 143.515 355.019 145.704 355.76L146.064 354.698ZM139.42 357.986C138.526 360.741 140.056 363.722 142.818 364.657L143.178 363.596C140.983 362.853 139.786 360.49 140.486 358.331L139.42 357.986Z" fill="#0055FF"/>
<path fill-rule="evenodd" clip-rule="evenodd" d="M460.656 489.703V495.221H459.009V488.615H458.998V486.969H459.009V486.967H460.656V486.969H467.252V488.615H461.896C464.368 491.711 468.116 493.57 472.181 493.57C479.456 493.57 485.353 487.657 485.353 480.364C485.353 475.896 483.125 471.809 479.487 469.373L480.401 468C484.38 470.664 487 475.207 487 480.364C487 488.569 480.365 495.221 472.181 495.221C467.526 495.221 463.372 493.069 460.656 489.703Z" fill="#FFB700"/>
<path fill-rule="evenodd" clip-rule="evenodd" d="M437.871 490.376C437.526 490.721 436.968 490.721 436.624 490.376C436.279 490.032 436.279 489.474 436.624 489.129L438.494 487.258C438.839 486.914 439.397 486.914 439.742 487.258C440.086 487.603 440.086 488.161 439.742 488.506L437.871 490.376ZM432.258 488.506C431.914 488.161 431.914 487.603 432.258 487.258C432.603 486.914 433.161 486.914 433.506 487.258L435.376 489.129C435.721 489.474 435.721 490.032 435.376 490.376C435.032 490.721 434.474 490.721 434.129 490.376L432.258 488.506ZM436.624 492.871C436.279 492.526 436.279 491.968 436.624 491.624C436.968 491.279 437.526 491.279 437.871 491.624L439.742 493.494C440.086 493.839 440.086 494.397 439.742 494.742C439.397 495.086 438.839 495.086 438.494 494.742L436.624 492.871ZM432.258 494.742C432.603 495.086 433.161 495.086 433.506 494.742L435.376 492.871C435.721 492.526 435.721 491.968 435.376 491.624C435.032 491.279 434.474 491.279 434.129 491.624L432.258 493.494C431.914 493.839 431.914 494.397 432.258 494.742Z" fill="#FFB700"/>
<path fill-rule="evenodd" clip-rule="evenodd" d="M452.871 456.376C452.526 456.721 451.968 456.721 451.624 456.376C451.279 456.032 451.279 455.474 451.624 455.129L453.494 453.258C453.839 452.914 454.397 452.914 454.742 453.258C455.086 453.603 455.086 454.161 454.742 454.506L452.871 456.376ZM447.258 454.506C446.914 454.161 446.914 453.603 447.258 453.258C447.603 452.914 448.161 452.914 448.506 453.258L450.376 455.129C450.721 455.474 450.721 456.032 450.376 456.376C450.032 456.721 449.474 456.721 449.129 456.376L447.258 454.506ZM451.624 458.871C451.279 458.526 451.279 457.968 451.624 457.624C451.968 457.279 452.526 457.279 452.871 457.624L454.742 459.494C455.086 459.839 455.086 460.397 454.742 460.742C454.397 461.086 453.839 461.086 453.494 460.742L451.624 458.871ZM447.258 460.742C447.603 461.086 448.161 461.086 448.506 460.742L450.376 458.871C450.721 458.526 450.721 457.968 450.376 457.624C450.032 457.279 449.474 457.279 449.129 457.624L447.258 459.494C446.914 459.839 446.914 460.397 447.258 460.742Z" fill="#FFB700"/>
<defs>
<filter id="filter0_d_2182_75304" x="166.945" y="93.945" width="305.11" height="384.11" filterUnits="userSpaceOnUse" color-interpolation-filters="sRGB">
<feFlood flood-opacity="0" result="BackgroundImageFix"/>
<feColorMatrix in="SourceAlpha" type="matrix" values="0 0 0 0 0 0 0 0 0 0 0 0 0 0 0 0 0 0 127 0" result="hardAlpha"/>
<feOffset/>
<feGaussianBlur stdDeviation="0.527495"/>
<feColorMatrix type="matrix" values="0 0 0 0 0.101961 0 0 0 0 0.101961 0 0 0 0 0.101961 0 0 0 0.2 0"/>
<feBlend mode="normal" in2="BackgroundImageFix" result="effect1_dropShadow_2182_75304"/>
<feBlend mode="normal" in="SourceGraphic" in2="effect1_dropShadow_2182_75304" result="shape"/>
</filter>
</defs>
</svg>
