<svg width="80" height="80" viewBox="0 0 80 80" fill="none" xmlns="http://www.w3.org/2000/svg">
<rect x="78.0898" y="28.5293" width="56.1267" height="56.1267" rx="7.22666" transform="rotate(112.85 78.0898 28.5293)" fill="#E6FAED"/>
<path fill-rule="evenodd" clip-rule="evenodd" d="M19.4444 74.2222C19.4444 75.4495 18.4495 76.4444 17.2222 76.4444C15.9949 76.4444 15 75.4495 15 74.2222C15 72.9949 15.9949 72 17.2222 72C18.4495 72 19.4444 72.9949 19.4444 74.2222ZM16.0668 74.2222C16.0668 74.8604 16.5841 75.3778 17.2223 75.3778C17.8605 75.3778 18.3779 74.8604 18.3779 74.2222C18.3779 73.584 17.8605 73.0667 17.2223 73.0667C16.5841 73.0667 16.0668 73.584 16.0668 74.2222Z" fill="#FFB700"/>
<path d="M8.22222 65V67.2222H6V68.3333H8.22222V70.5556H9.33334V68.3333H11.5556V67.2222H9.33334V65H8.22222Z" fill="#FFB700"/>
<g clip-path="url(#clip0_2182_76435)">
<path d="M22.4012 69.8116L22.3523 16.2497C22.3519 15.7849 22.7283 15.4078 23.193 15.4074L57.0967 15.3736L65.3453 23.9747C65.4954 24.1312 65.5793 24.3395 65.5795 24.5563L65.6207 69.7686C65.6211 70.2333 65.2447 70.6104 64.78 70.6109L23.2434 70.6522C22.7787 70.6527 22.4016 70.2763 22.4012 69.8116Z" fill="white"/>
<path d="M57.2661 15.3734L57.0967 15.3736M57.0967 15.3736L23.193 15.4074C22.7283 15.4078 22.3519 15.7849 22.3523 16.2497L22.4012 69.8116C22.4016 70.2763 22.7787 70.6527 23.2434 70.6522L64.78 70.6109C65.2447 70.6104 65.6211 70.2333 65.6207 69.7686L65.5795 24.5563C65.5793 24.3395 65.4954 24.1312 65.3453 23.9747L57.0967 15.3736Z" stroke="#D1D1D1" stroke-width="0.571839"/>
<path d="M57.1054 24.228L57.0977 15.375L65.5801 24.2192L57.1054 24.228Z" fill="#D1D1D1"/>
</g>
<path fill-rule="evenodd" clip-rule="evenodd" d="M32.6572 30C31.7419 30 31 30.7419 31 31.6572C31 32.5724 31.7419 33.3144 32.6572 33.3144H57.7062C58.6214 33.3144 59.3634 32.5724 59.3634 31.6572C59.3634 30.7419 58.6214 30 57.7062 30H32.6572ZM32.6572 37.7326C31.7419 37.7326 31 38.4745 31 39.3897C31 40.305 31.7419 41.0469 32.6572 41.0469H57.7062C58.6214 41.0469 59.3634 40.305 59.3634 39.3897C59.3634 38.4745 58.6214 37.7326 57.7062 37.7326H32.6572ZM31 47.1215C31 46.2063 31.7419 45.4643 32.6572 45.4643H57.7062C58.6214 45.4643 59.3634 46.2063 59.3634 47.1215C59.3634 48.0367 58.6214 48.7787 57.7062 48.7787H32.6572C31.7419 48.7787 31 48.0367 31 47.1215ZM32.6572 53.1993C31.7419 53.1993 31 53.9412 31 54.8564C31 55.7717 31.7419 56.5136 32.6572 56.5136H49.8818C50.797 56.5136 51.539 55.7717 51.539 54.8564C51.539 53.9412 50.797 53.1993 49.8818 53.1993H32.6572Z" fill="#D1D1D1"/>
<path d="M31.2328 27.5271C30.7283 27.4782 30.2442 27.7262 29.992 28.169L25.2635 36.4551C25.0496 36.829 25.0369 37.2852 25.232 37.6714L28.8767 44.899C29.0953 45.3334 29.5597 45.5693 30.0457 45.5683L30.4253 45.5038C30.7614 45.3906 31.0537 45.1367 31.2115 44.8161C33.7623 39.6729 34.1585 33.8434 32.325 28.3976C32.1648 27.9165 31.7374 27.5759 31.2328 27.5271Z" fill="#00A336"/>
<path d="M25.4317 40.7193C25.1199 40.8242 24.7677 40.809 24.4509 40.6518L10.8233 33.8895C10.2135 33.5869 9.94525 32.8601 10.2132 32.233L14.9725 21.102C18.2515 12.946 25.6442 5.85088 33.4529 3.40608C34.1073 3.20202 34.8083 3.54988 35.0416 4.19442C37.8158 11.8434 36.6397 22.068 32.1128 29.6372L26.1407 40.1353C25.9769 40.4218 25.7223 40.6214 25.4317 40.7193Z" fill="#00CC44"/>
<path d="M28.6134 21.9585C27.5726 22.309 26.4001 22.2627 25.3431 21.7382C23.2287 20.6876 22.3616 18.1125 23.4101 15.9969C24.4601 13.8809 27.0352 13.0138 29.1513 14.0639C31.2658 15.1145 32.1328 17.6896 31.0844 19.8051C30.5588 20.8642 29.6525 21.6087 28.6134 21.9585Z" fill="white"/>
<path d="M15.2616 20.4032C10.0745 22.307 5.88388 26.0589 3.41815 31.0252L3.38153 31.099C3.16506 31.5353 3.21377 32.0558 3.50696 32.4433C3.80069 32.8325 4.28723 33.0212 4.76534 32.9325L10.3533 31.9025L14.9706 21.1013C15.0642 20.8692 15.161 20.6359 15.2616 20.4032Z" fill="#00A336"/>
<path d="M17.4593 38.7687C17.7258 38.9129 17.8205 39.2434 17.6709 39.5068L14.9616 44.2777C14.8119 44.5412 14.4746 44.6379 14.2081 44.4937C13.9415 44.3496 13.8468 44.0191 13.9964 43.7556L16.7057 38.9848C16.8554 38.7213 17.1927 38.6246 17.4593 38.7687Z" fill="#FFB700"/>
<path d="M13.0608 37.634C13.3274 37.7781 13.4221 38.1086 13.2725 38.3721L10.5631 43.1429C10.4135 43.4064 10.0761 43.5031 9.80961 43.359C9.54309 43.2148 9.44833 42.8844 9.59797 42.6209L12.3073 37.85C12.4569 37.5866 12.7943 37.4898 13.0608 37.634Z" fill="#FFB700"/>
<path d="M20.7835 41.8098C21.05 41.9539 21.1448 42.2844 20.9951 42.5479L18.2858 47.3187C18.1362 47.5822 17.7988 47.6789 17.5323 47.5348C17.2657 47.3906 17.171 47.0601 17.3206 46.7967L20.03 42.0258C20.1796 41.7623 20.517 41.6656 20.7835 41.8098Z" fill="#FFB700"/>
<path d="M71 14.6334L68.5279 16L69 13.1056L67 11.0557L69.7639 10.6334L71 8L72.2361 10.6334L75 11.0557L73 13.1056L73.4721 16L71 14.6334Z" fill="#FFB700"/>
<defs>
<clipPath id="clip0_2182_76435">
<rect width="44" height="56" fill="white" transform="translate(22 15)"/>
</clipPath>
</defs>
</svg>
