<svg width="80" height="80" viewBox="0 0 80 80" fill="none" xmlns="http://www.w3.org/2000/svg">
<rect x="-1" y="27" width="61.3481" height="61.3481" rx="8" transform="rotate(-27.6313 -1 27)" fill="#F2F6FF"/>
<path d="M30.3189 13.0004C29.9613 13.0004 29.6191 13.1459 29.3711 13.4034L19.3662 23.791C19.13 24.0362 18.9981 24.3634 18.9981 24.7038L18.9981 63.1539C18.9981 64.5194 20.0508 65.6367 21.3375 65.6367L57.5981 65.6367C58.8848 65.6367 59.9375 64.5194 59.9375 63.1539L59.9375 15.4833C59.9375 14.1178 58.8848 13.0005 57.5981 13.0005L30.3189 13.0004Z" fill="white"/>
<path d="M32.5711 30L50.968 30C51.4107 30 51.7695 30.4477 51.7695 31C51.7695 31.5523 51.4107 32 50.968 32L32.5711 32C32.1284 32 31.7695 31.5523 31.7695 31C31.7695 30.4477 32.1284 30 32.5711 30Z" fill="#CCDDFF"/>
<circle cx="27.9961" cy="31" r="1" fill="#CCDDFF"/>
<path d="M32.575 37L50.9719 37C51.4146 37 51.7734 37.4477 51.7734 38C51.7734 38.5523 51.4146 39 50.9719 39L32.575 39C32.1323 39 31.7734 38.5523 31.7734 38C31.7734 37.4477 32.1323 37 32.575 37Z" fill="#CCDDFF"/>
<circle cx="28" cy="38" r="1" fill="#CCDDFF"/>
<path d="M32.575 44L50.9719 44C51.4146 44 51.7734 44.4477 51.7734 45C51.7734 45.5523 51.4146 46 50.9719 46L32.575 46C32.1323 46 31.7734 45.5523 31.7734 45C31.7734 44.4477 32.1323 44 32.575 44Z" fill="#CCDDFF"/>
<circle cx="28" cy="45" r="1" fill="#CCDDFF"/>
<path fill-rule="evenodd" clip-rule="evenodd" d="M30.3189 14.3159L20.314 24.7035L20.314 63.1536C20.314 63.8672 20.8503 64.3205 21.3375 64.3205L57.5981 64.3205C58.0853 64.3205 58.6216 63.8672 58.6216 63.1536L58.6216 15.4829C58.6216 14.7693 58.0853 14.316 57.5981 14.316L30.3189 14.3159ZM29.3711 13.403C29.6191 13.1455 29.9613 13 30.3189 13L57.5981 13.0001C58.8848 13.0001 59.9375 14.1174 59.9375 15.4829L59.9375 63.1536C59.9375 64.5191 58.8848 65.6364 57.5981 65.6364L21.3375 65.6364C20.0508 65.6364 18.9981 64.5191 18.9981 63.1536L18.9981 24.7035C18.9981 24.363 19.13 24.0358 19.3662 23.7906L29.3711 13.403Z" fill="#D1D1D1"/>
<path d="M18.9981 24.697L30.6951 13L30.6951 24.697L18.9981 24.697Z" fill="#D1D1D1"/>
<rect x="4" y="52" width="24" height="24" rx="4" fill="#0048D9"/>
<path d="M13.1018 64.38L12.8778 65.22H14.8238L14.6138 64.38C14.4832 63.9227 14.3572 63.4373 14.2358 62.924C14.1145 62.4107 13.9932 61.916 13.8718 61.44H13.8158C13.7038 61.9253 13.5872 62.4247 13.4658 62.938C13.3538 63.442 13.2325 63.9227 13.1018 64.38ZM9.79784 69L12.6538 59.872H15.1318L17.9878 69H15.8038L15.2438 66.83H12.4578L11.8978 69H9.79784ZM18.9852 69V59.872H21.0432V69H18.9852Z" fill="white"/>
<path d="M63.2222 70V72.2222H61V73.3333H63.2222V75.5556H64.3333V73.3333H66.5556V72.2222H64.3333V70H63.2222Z" fill="#003CB2"/>
<path fill-rule="evenodd" clip-rule="evenodd" d="M73.4444 65.2222C73.4444 66.4495 72.4495 67.4444 71.2222 67.4444C69.9949 67.4444 69 66.4495 69 65.2222C69 63.9949 69.9949 63 71.2222 63C72.4495 63 73.4444 63.9949 73.4444 65.2222ZM70.0668 65.2222C70.0668 65.8604 70.5841 66.3778 71.2223 66.3778C71.8605 66.3778 72.3779 65.8604 72.3779 65.2222C72.3779 64.584 71.8605 64.0667 71.2223 64.0667C70.5841 64.0667 70.0668 64.584 70.0668 65.2222Z" fill="#003CB2"/>
</svg>
