<svg width="80" height="80" viewBox="0 0 80 80" fill="none" xmlns="http://www.w3.org/2000/svg">
<rect x="8.18359" y="24.7461" width="50.3838" height="50.3838" rx="4" transform="rotate(-19.738 8.18359 24.7461)" fill="#F2F6FF"/>
<path fill-rule="evenodd" clip-rule="evenodd" d="M18.0394 13.5147H19.4119V12.2227H18.0394V13.5147ZM20.7844 13.5147H22.1569V12.2227H20.7844V13.5147ZM23.5315 13.5147H24.904V12.2227H23.5315V13.5147ZM26.2744 13.5147H27.6469V12.2227H26.2744V13.5147ZM29.0192 13.5147H30.3917V12.2227H29.0192V13.5147ZM31.7663 13.5147H33.1388V12.2227H31.7663V13.5147ZM34.5113 13.5147H35.8838V12.2227H34.5113V13.5147ZM37.2563 13.5147H38.6288V12.2227H37.2563V13.5147ZM40.0013 13.5147V12.2227H41.3738V13.5147H42.7463V12.2227H44.1188V13.5147H42.7463H40.0013ZM45.4892 13.5147H46.8617V12.2227H45.4892V13.5147ZM48.2342 13.5147H49.6067V12.2227H48.2342V13.5147ZM50.9792 13.5147H52.3517V12.2227H50.9792V13.5147ZM53.724 13.5147H55.0964V12.2227H53.724V13.5147ZM56.469 13.5147H57.8414V12.2227H56.469V13.5147ZM59.2161 13.5147H60.5886V12.2227H59.2161V13.5147ZM61.9609 14.8072V16.0992H63.3334V14.8072H61.9609ZM61.9609 17.3906V18.6826H63.3334V17.3906H61.9609ZM61.9609 19.9751V21.2671H63.3334V19.9751H61.9609ZM61.9609 22.5588V23.8508H63.3334V22.5588H61.9609ZM61.9609 25.1431V26.4351H63.3334V25.1431H61.9609ZM61.9609 27.7267V29.0187H63.3334V27.7267H61.9609ZM61.9609 30.311V31.603H63.3334V30.311H61.9609ZM61.9609 32.8944V34.1864H63.3334V32.8944H61.9609ZM61.9609 35.4789V36.7709H63.3334V35.4789H61.9609ZM61.9609 38.0623V39.3543H63.3334V38.0623H61.9609ZM61.9609 40.6469V41.9389H63.3334V40.6469H61.9609ZM61.9609 43.2306V44.5226H63.3334V43.2306H61.9609ZM61.9609 45.8148V47.1068H63.3334V45.8148H61.9609ZM61.9609 48.3985V49.6905H63.3334V48.3985H61.9609ZM61.9609 50.983V52.275H63.3334V50.983H61.9609ZM61.9609 53.5664V54.8584H63.3334V53.5664H61.9609ZM61.9609 56.1507V57.4427H63.3334V56.1507H61.9609ZM61.9609 58.7344V60.0264H63.3334V58.7344H61.9609ZM61.9609 61.3186V62.6106H63.3334V61.3186H61.9609ZM61.9609 63.9026V65.1946H63.3334V63.9026H61.9609ZM61.9597 66.4863H60.5872V67.7783H61.9597V66.4863ZM59.2145 66.4863H57.842V67.7783H59.2145V66.4863ZM56.4693 66.4863H55.0968V67.7783H56.4693V66.4863ZM53.7241 66.4863H52.3516V67.7783H53.7241V66.4863ZM50.981 66.4863H49.6085V67.7783H50.981V66.4863ZM48.2358 66.4863H46.8633V67.7783H48.2358V66.4863ZM45.4905 66.4863H44.1181V67.7783H45.4905V66.4863ZM42.7453 66.4863H41.3728V67.7783H42.7453V66.4863ZM40.0023 66.4863H38.6298V67.7783H40.0023V66.4863ZM37.257 66.4863H35.8846V67.7783H37.257V66.4863ZM34.5096 66.4863H33.1372V67.7783H34.5096V66.4863ZM31.7622 66.4863H30.3898V67.7783H31.7622V66.4863ZM29.0192 66.4863H27.6467V67.7783H29.0192V66.4863ZM26.2761 66.4863H24.9036V67.7783H26.2761V66.4863ZM23.5309 66.4863H22.1584V67.7783H23.5309V66.4863ZM20.7857 66.4863H19.4132V67.7783H20.7857V66.4863ZM18.0405 65.1946V63.9026H16.668V65.1946H18.0405ZM18.0405 62.6106V61.3186H16.668V62.6106H18.0405ZM18.0405 60.0264V58.7344H16.668V60.0264H18.0405ZM18.0405 57.4427V56.1507H16.668V57.4427H18.0405ZM18.0405 54.8584V53.5664H16.668V54.8584H18.0405ZM18.0405 52.275V50.983H16.668V52.275H18.0405ZM18.0405 49.6905V48.3985H16.668V49.6905H18.0405ZM18.0405 47.1068V45.8148H16.668V47.1068H18.0405ZM18.0405 44.5226V43.2306H16.668V44.5226H18.0405ZM18.0405 41.9389V40.6469H16.668V41.9389H18.0405ZM18.0405 39.3543V38.0623H16.668V39.3543H18.0405ZM18.0405 36.7709V35.4789H16.668V36.7709H18.0405ZM18.0405 34.1864V32.8944H16.668V34.1864H18.0405ZM18.0405 31.603V30.311H16.668V31.603H18.0405ZM18.0405 29.0187V27.7267H16.668V29.0187H18.0405ZM18.0405 26.4351V25.1431H16.668V26.4351H18.0405ZM18.0405 23.8508V22.5588H16.668V23.8508H18.0405ZM18.0405 21.2671V19.9751H16.668V21.2671H18.0405ZM18.0405 18.6826V17.3906H16.668V18.6826H18.0405ZM16.668 14.8072V16.0992H18.0405V14.8072H16.668Z" fill="#D1D1D1"/>
<path d="M47.9035 61.1109L56.6654 52.1486V20.8803C56.6654 19.7849 55.8082 18.8887 54.7606 18.8887H25.2368C24.1892 18.8887 23.332 19.7849 23.332 20.8803V59.1192C23.332 60.2146 24.1892 61.1108 25.2368 61.1108L47.9035 61.1109Z" fill="white"/>
<path d="M51.4448 32.6172H28.6045C28.0549 32.6172 27.6094 33.0627 27.6094 33.6123C27.6094 34.1619 28.0549 34.6074 28.6045 34.6074H51.4448C51.9944 34.6074 52.4399 34.1619 52.4399 33.6123C52.4399 33.0627 51.9944 32.6172 51.4448 32.6172Z" fill="#DDDDDD"/>
<path d="M51.4448 38.6827H28.6045C28.0549 38.6827 27.6094 39.1282 27.6094 39.6778C27.6094 40.2274 28.0549 40.6729 28.6045 40.6729H51.4448C51.9944 40.6729 52.4399 40.2274 52.4399 39.6778C52.4399 39.1282 51.9944 38.6827 51.4448 38.6827Z" fill="#DDDDDD"/>
<path d="M38.3661 44.8429H28.6045C28.0549 44.8429 27.6094 45.2885 27.6094 45.838C27.6094 46.3876 28.0549 46.8332 28.6045 46.8332H38.3661C38.9157 46.8332 39.3612 46.3876 39.3612 45.838C39.3612 45.2885 38.9157 44.8429 38.3661 44.8429Z" fill="#DDDDDD"/>
<path fill-rule="evenodd" clip-rule="evenodd" d="M56.6654 52.1486V20.8803C56.6654 19.7849 55.8082 18.8887 54.7606 18.8887H25.2368C24.1892 18.8887 23.332 19.7849 23.332 20.8803V59.1192C23.332 60.2146 24.1892 61.1108 25.2368 61.1108L47.9035 61.1109L56.6654 52.1486ZM47.4826 60.1109L25.2368 60.1108C24.783 60.1108 24.332 59.7048 24.332 59.1192V20.8803C24.332 20.2947 24.783 19.8887 25.2368 19.8887H54.7606C55.2144 19.8887 55.6654 20.2947 55.6654 20.8803V51.741L47.4826 60.1109Z" fill="#D1D1D1"/>
<path d="M46.6652 61.111L56.6652 51.111H46.6652V61.111Z" fill="#D1D1D1"/>
<path d="M65.2222 72V74.2222H63V75.3333H65.2222V77.5556H66.3333V75.3333H68.5556V74.2222H66.3333V72H65.2222Z" fill="#0055FF"/>
<path fill-rule="evenodd" clip-rule="evenodd" d="M75.4444 67.2222C75.4444 68.4495 74.4495 69.4444 73.2222 69.4444C71.9949 69.4444 71 68.4495 71 67.2222C71 65.9949 71.9949 65 73.2222 65C74.4495 65 75.4444 65.9949 75.4444 67.2222ZM72.0668 67.2222C72.0668 67.8604 72.5841 68.3778 73.2223 68.3778C73.8605 68.3778 74.3779 67.8604 74.3779 67.2222C74.3779 66.584 73.8605 66.0667 73.2223 66.0667C72.5841 66.0667 72.0668 66.584 72.0668 67.2222Z" fill="#0055FF"/>
</svg>
