<svg width="80" height="80" viewBox="0 0 80 80" fill="none" xmlns="http://www.w3.org/2000/svg">
<rect x="-1" y="27" width="61.3481" height="61.3481" rx="8" transform="rotate(-27.6313 -1 27)" fill="#F2F6FF"/>
<path d="M30.3189 13.0004C29.9613 13.0004 29.6191 13.1459 29.3711 13.4034L19.3662 23.791C19.13 24.0362 18.9981 24.3634 18.9981 24.7038L18.9981 63.1539C18.9981 64.5194 20.0508 65.6367 21.3375 65.6367L57.5981 65.6367C58.8848 65.6367 59.9375 64.5194 59.9375 63.1539L59.9375 15.4833C59.9375 14.1178 58.8848 13.0005 57.5981 13.0005L30.3189 13.0004Z" fill="white"/>
<path fill-rule="evenodd" clip-rule="evenodd" d="M30.3189 14.3159L20.314 24.7035L20.314 63.1536C20.314 63.8672 20.8503 64.3205 21.3375 64.3205L57.5981 64.3205C58.0853 64.3205 58.6216 63.8672 58.6216 63.1536L58.6216 15.4829C58.6216 14.7693 58.0853 14.316 57.5981 14.316L30.3189 14.3159ZM29.3711 13.403C29.6191 13.1455 29.9613 13 30.3189 13L57.5981 13.0001C58.8848 13.0001 59.9375 14.1174 59.9375 15.4829L59.9375 63.1536C59.9375 64.5191 58.8848 65.6364 57.5981 65.6364L21.3375 65.6364C20.0508 65.6364 18.9981 64.5191 18.9981 63.1536L18.9981 24.7035C18.9981 24.363 19.13 24.0358 19.3662 23.7906L29.3711 13.403Z" fill="#D1D1D1"/>
<path d="M18.9981 24.697L30.6951 13L30.6951 24.697L18.9981 24.697Z" fill="#D1D1D1"/>
<path fill-rule="evenodd" clip-rule="evenodd" d="M27.6572 30C26.7419 30 26 30.7419 26 31.6572C26 32.5724 26.7419 33.3144 27.6572 33.3144H52.7062C53.6214 33.3144 54.3634 32.5724 54.3634 31.6572C54.3634 30.7419 53.6214 30 52.7062 30H27.6572ZM27.6572 37.7326C26.7419 37.7326 26 38.4745 26 39.3897C26 40.305 26.7419 41.0469 27.6572 41.0469H52.7062C53.6214 41.0469 54.3634 40.305 54.3634 39.3897C54.3634 38.4745 53.6214 37.7326 52.7062 37.7326H27.6572ZM26 47.1215C26 46.2063 26.7419 45.4643 27.6572 45.4643H52.7062C53.6214 45.4643 54.3634 46.2063 54.3634 47.1215C54.3634 48.0367 53.6214 48.7787 52.7062 48.7787H27.6572C26.7419 48.7787 26 48.0367 26 47.1215ZM27.6572 53.1993C26.7419 53.1993 26 53.9412 26 54.8564C26 55.7717 26.7419 56.5136 27.6572 56.5136H44.8818C45.797 56.5136 46.539 55.7717 46.539 54.8564C46.539 53.9412 45.797 53.1993 44.8818 53.1993H27.6572Z" fill="#D1D1D1"/>
<path d="M6.22222 64V66.2222H4V67.3333H6.22222V69.5556H7.33334V67.3333H9.55556V66.2222H7.33334V64H6.22222Z" fill="#003CB2"/>
<path fill-rule="evenodd" clip-rule="evenodd" d="M18.4444 73.2222C18.4444 74.4495 17.4495 75.4444 16.2222 75.4444C14.9949 75.4444 14 74.4495 14 73.2222C14 71.9949 14.9949 71 16.2222 71C17.4495 71 18.4444 71.9949 18.4444 73.2222ZM15.0668 73.2222C15.0668 73.8604 15.5841 74.3778 16.2223 74.3778C16.8605 74.3778 17.3779 73.8604 17.3779 73.2222C17.3779 72.584 16.8605 72.0667 16.2223 72.0667C15.5841 72.0667 15.0668 72.584 15.0668 73.2222Z" fill="#003CB2"/>
<rect x="27" y="39" width="27" height="2.5" rx="1.25" fill="#FFE299"/>
<rect x="27" y="47" width="14" height="2.5" rx="1.25" fill="#FFE299"/>
<rect x="52" y="27" width="16" height="16" rx="2.66667" fill="#FFB700"/>
<path fill-rule="evenodd" clip-rule="evenodd" d="M61.931 36.5373L64.5 39.1062L64.1062 39.5L61.5373 36.931C60.8976 37.4805 60.0657 37.8125 59.1562 37.8125C57.137 37.8125 55.5 36.1755 55.5 34.1562C55.5 32.137 57.137 30.5 59.1562 30.5C61.1755 30.5 62.8125 32.137 62.8125 34.1562C62.8125 35.0657 62.4805 35.8976 61.931 36.5373ZM59.1562 37.25C60.8649 37.25 62.25 35.8649 62.25 34.1562C62.25 32.4476 60.8649 31.0625 59.1562 31.0625C57.4476 31.0625 56.0625 32.4476 56.0625 34.1562C56.0625 35.8649 57.4476 37.25 59.1562 37.25Z" fill="#3C3C3C" stroke="#3C3C3C" stroke-width="0.8"/>
</svg>
